<svg xmlns="http://www.w3.org/2000/svg" viewBox="0 0 299 95"><defs><style>.cls-1{fill:#fff;}</style></defs><g id="Layer_3" data-name="Layer 3"><rect class="cls-1" width="299" height="95" rx="12"/></g><g id="Layer_1" data-name="Layer 1"><g id="App_Store" data-name="App Store"><path d="M322.6,335.91a27,27,0,0,1-2.76,4.85,24.66,24.66,0,0,1-3.55,4.19,7,7,0,0,1-4.57,2,11.67,11.67,0,0,1-4.21-1,12.49,12.49,0,0,0-4.54-1,12.87,12.87,0,0,0-4.67,1,12.71,12.71,0,0,1-4,1,6.52,6.52,0,0,1-4.67-2,25.65,25.65,0,0,1-3.71-4.34A29.33,29.33,0,0,1,282,333a27.35,27.35,0,0,1-1.65-9.09,16.27,16.27,0,0,1,2.23-8.68,12.92,12.92,0,0,1,4.67-4.62,12.72,12.72,0,0,1,6.32-1.74A15,15,0,0,1,298.4,310a15.9,15.9,0,0,0,3.88,1.11,23.8,23.8,0,0,0,4.29-1.31,14.38,14.38,0,0,1,5.84-1q6.48.51,9.72,5-5.79,3.42-5.73,9.59a10.45,10.45,0,0,0,3.55,8,11.76,11.76,0,0,0,3.56,2.28c-.29.81-.59,1.58-.91,2.32Zm-9.9-38.06a10.56,10.56,0,0,1-2.8,7c-2.26,2.58-5,4.07-7.94,3.83a7.12,7.12,0,0,1-.06-.95,10.85,10.85,0,0,1,3-7.08A11.35,11.35,0,0,1,308.5,298a10.84,10.84,0,0,1,4.15-1.15,8.37,8.37,0,0,1,.05,1Z" transform="translate(-257 -278)"/><path d="M374.82,349h-5L367,340.49h-9.59L354.81,349h-4.9l9.5-28.84h5.87Zm-8.62-12-2.5-7.53q-.39-1.15-1.49-5.43h-.09c-.29,1.23-.75,3-1.4,5.43l-2.45,7.53Z" transform="translate(-257 -278)"/><path d="M399.26,338.31a11.67,11.67,0,0,1-2.93,8.38,8.68,8.68,0,0,1-6.53,2.74c-2.8,0-4.82-1-6-2.95h-.09v11h-4.73V335c0-2.22-.06-4.51-.18-6.85h4.16l.27,3.3h.08a8.55,8.55,0,0,1,13.47-.82A11.33,11.33,0,0,1,399.26,338.31Zm-4.82.17a8.38,8.38,0,0,0-1.4-5,4.87,4.87,0,0,0-4.12-2.06,5,5,0,0,0-3.17,1.14,5.24,5.24,0,0,0-1.86,3,5.8,5.8,0,0,0-.22,1.41v3.47a5.47,5.47,0,0,0,1.42,3.83,4.79,4.79,0,0,0,3.7,1.56,4.88,4.88,0,0,0,4.16-2A8.65,8.65,0,0,0,394.44,338.48Z" transform="translate(-257 -278)"/><path d="M423.74,338.31a11.63,11.63,0,0,1-2.94,8.38,8.65,8.65,0,0,1-6.52,2.74c-2.8,0-4.82-1-6-2.95h-.09v11h-4.73V335c0-2.22-.06-4.51-.17-6.85h4.15l.27,3.3h.09a8.54,8.54,0,0,1,13.46-.82A11.33,11.33,0,0,1,423.74,338.31Zm-4.82.17a8.45,8.45,0,0,0-1.4-5,4.87,4.87,0,0,0-4.12-2.06,5,5,0,0,0-3.17,1.14,5.24,5.24,0,0,0-1.86,3,5.8,5.8,0,0,0-.22,1.41v3.47a5.47,5.47,0,0,0,1.42,3.83,4.77,4.77,0,0,0,3.7,1.56,4.88,4.88,0,0,0,4.16-2A8.72,8.72,0,0,0,418.92,338.48Z" transform="translate(-257 -278)"/><path d="M451.11,340.87a7.59,7.59,0,0,1-2.62,6c-1.93,1.69-4.6,2.53-8,2.53a14.29,14.29,0,0,1-7.65-1.8l1.09-3.85a13.19,13.19,0,0,0,6.84,1.84,6.52,6.52,0,0,0,4.16-1.18,3.81,3.81,0,0,0,1.49-3.15,4,4,0,0,0-1.23-2.95,11.44,11.44,0,0,0-4.07-2.24q-7.75-2.82-7.75-8.27a7.21,7.21,0,0,1,2.72-5.82,10.83,10.83,0,0,1,7.22-2.28,14.63,14.63,0,0,1,6.7,1.37l-1.18,3.77a11.9,11.9,0,0,0-5.65-1.33,5.88,5.88,0,0,0-3.9,1.2,3.43,3.43,0,0,0-1.18,2.61,3.48,3.48,0,0,0,1.36,2.83,15.65,15.65,0,0,0,4.29,2.23,14.51,14.51,0,0,1,5.61,3.5A7.26,7.26,0,0,1,451.11,340.87Z" transform="translate(-257 -278)"/><path d="M466.74,331.63h-5.21v10.1q0,3.86,2.76,3.85a8.72,8.72,0,0,0,2.1-.21l.13,3.5a10.93,10.93,0,0,1-3.68.52,5.77,5.77,0,0,1-4.38-1.67q-1.57-1.68-1.57-5.61V331.63h-3.11v-3.47h3.11v-3.81l4.64-1.37v5.18h5.21Z" transform="translate(-257 -278)"/><path d="M490.26,338.39a11.31,11.31,0,0,1-2.8,7.88,10.14,10.14,0,0,1-7.8,3.16,9.66,9.66,0,0,1-7.47-3,10.94,10.94,0,0,1-2.78-7.66,11.16,11.16,0,0,1,2.87-7.92,10,10,0,0,1,7.73-3.08,9.83,9.83,0,0,1,7.53,3A10.74,10.74,0,0,1,490.26,338.39Zm-4.91.15a9.3,9.3,0,0,0-1.26-4.94,4.69,4.69,0,0,0-4.25-2.48,4.78,4.78,0,0,0-4.34,2.48,9.39,9.39,0,0,0-1.26,5,9.15,9.15,0,0,0,1.26,4.93,4.81,4.81,0,0,0,4.3,2.49,4.75,4.75,0,0,0,4.24-2.53A9.25,9.25,0,0,0,485.35,338.54Z" transform="translate(-257 -278)"/><path d="M505.63,332.23a8,8,0,0,0-1.49-.13,4.49,4.49,0,0,0-3.85,1.84,6.78,6.78,0,0,0-1.19,4.11V349h-4.72l0-14.25c0-2.39-.06-4.58-.18-6.55h4.12l.18,4h.13a7.15,7.15,0,0,1,2.36-3.29,5.82,5.82,0,0,1,3.42-1.11,8.32,8.32,0,0,1,1.18.08Z" transform="translate(-257 -278)"/><path d="M526.78,337.58a11.15,11.15,0,0,1-.17,2.09H512.42a6,6,0,0,0,2.06,4.71,7.12,7.12,0,0,0,4.64,1.46,16,16,0,0,0,5.74-1l.74,3.21a18.07,18.07,0,0,1-7.14,1.29,9.8,9.8,0,0,1-10.6-10.49,11.78,11.78,0,0,1,2.63-7.83,9.17,9.17,0,0,1,7.45-3.33,8,8,0,0,1,7,3.33A11.06,11.06,0,0,1,526.78,337.58Zm-4.51-1.2a6.18,6.18,0,0,0-.92-3.55,4.15,4.15,0,0,0-3.77-1.93,4.53,4.53,0,0,0-3.76,1.88,6.76,6.76,0,0,0-1.4,3.6Z" transform="translate(-257 -278)"/><path d="M364.88,303.62a6.83,6.83,0,0,1-2.28,5.59,9.23,9.23,0,0,1-6,1.73,28.42,28.42,0,0,1-3.3-.16V297.25a24.88,24.88,0,0,1,3.89-.28,8.49,8.49,0,0,1,5.57,1.57A6.29,6.29,0,0,1,364.88,303.62Zm-2.38.06a5,5,0,0,0-1.31-3.69,5.2,5.2,0,0,0-3.81-1.29,9.36,9.36,0,0,0-1.81.15v10.28a12.49,12.49,0,0,0,1.52.06,5.41,5.41,0,0,0,4-1.41A5.58,5.58,0,0,0,362.5,303.68Z" transform="translate(-257 -278)"/><path d="M377.49,305.78a5.38,5.38,0,0,1-1.34,3.76,4.84,4.84,0,0,1-3.72,1.51,4.62,4.62,0,0,1-3.56-1.45,5.23,5.23,0,0,1-1.32-3.65,5.29,5.29,0,0,1,1.37-3.78,4.78,4.78,0,0,1,3.68-1.47,4.7,4.7,0,0,1,3.59,1.45A5.17,5.17,0,0,1,377.49,305.78Zm-2.34.07a4.42,4.42,0,0,0-.61-2.35,2.24,2.24,0,0,0-2-1.19,2.27,2.27,0,0,0-2.07,1.19,5,5,0,0,0,0,4.75,2.29,2.29,0,0,0,2.05,1.18,2.25,2.25,0,0,0,2-1.21A4.32,4.32,0,0,0,375.15,305.85Z" transform="translate(-257 -278)"/><path d="M394.39,300.91l-3.17,9.91h-2.07l-1.31-4.3a30.26,30.26,0,0,1-.82-3.21h0a23.6,23.6,0,0,1-.82,3.21l-1.39,4.3h-2.09l-3-9.91H382l1.15,4.71c.28,1.11.5,2.18.69,3.18h0c.17-.83.44-1.88.84-3.16l1.43-4.73H388l1.38,4.63c.34,1.13.61,2.22.82,3.26h.06a29,29,0,0,1,.69-3.26l1.23-4.63Z" transform="translate(-257 -278)"/><path d="M406.08,310.82h-2.25v-5.68c0-1.75-.68-2.62-2.05-2.62a2.05,2.05,0,0,0-1.62.72,2.5,2.5,0,0,0-.63,1.7v5.88h-2.26v-7.08c0-.87,0-1.82-.08-2.84h2l.11,1.55h.06a3.17,3.17,0,0,1,1.17-1.19,3.9,3.9,0,0,1,2.05-.56,3.29,3.29,0,0,1,2.36.9,4.29,4.29,0,0,1,1.16,3.28Z" transform="translate(-257 -278)"/><path d="M412.3,310.82h-2.25V296.36h2.25Z" transform="translate(-257 -278)"/><path d="M425.58,305.78a5.37,5.37,0,0,1-1.33,3.76,4.87,4.87,0,0,1-3.72,1.51A4.6,4.6,0,0,1,417,309.6a5.23,5.23,0,0,1-1.32-3.65,5.33,5.33,0,0,1,1.36-3.78,4.81,4.81,0,0,1,3.69-1.47,4.72,4.72,0,0,1,3.59,1.45A5.17,5.17,0,0,1,425.58,305.78Zm-2.34.07a4.41,4.41,0,0,0-.6-2.35,2.24,2.24,0,0,0-2-1.19,2.27,2.27,0,0,0-2.07,1.19,4.93,4.93,0,0,0,0,4.75,2.28,2.28,0,0,0,2,1.18,2.24,2.24,0,0,0,2-1.21A4.32,4.32,0,0,0,423.24,305.85Z" transform="translate(-257 -278)"/><path d="M436.5,310.82h-2l-.17-1.14h-.06a3.5,3.5,0,0,1-3,1.37,3.14,3.14,0,0,1-2.32-.9,2.79,2.79,0,0,1-.79-2,3.08,3.08,0,0,1,1.56-2.78,8.14,8.14,0,0,1,4.37-.93v-.19c0-1.3-.7-2-2.11-2a4.77,4.77,0,0,0-2.64.74l-.46-1.45a6.63,6.63,0,0,1,3.48-.86q4,0,4,4.11v3.65A14.6,14.6,0,0,0,436.5,310.82Zm-2.34-3.41v-1.53c-2.49,0-3.74.63-3.74,2a1.49,1.49,0,0,0,.44,1.17,1.63,1.63,0,0,0,1.1.38,2.29,2.29,0,0,0,1.38-.46,1.87,1.87,0,0,0,.78-1.17A2.13,2.13,0,0,0,434.16,307.41Z" transform="translate(-257 -278)"/><path d="M449.31,310.82h-2l-.1-1.59h-.07a3.37,3.37,0,0,1-3.25,1.82,3.85,3.85,0,0,1-3.05-1.41,5.4,5.4,0,0,1-1.21-3.65,5.69,5.69,0,0,1,1.31-3.9,4.09,4.09,0,0,1,3.14-1.39,3,3,0,0,1,2.85,1.35H447v-5.69h2.25v11.79C449.23,309.11,449.26,310,449.31,310.82ZM447,306.64V305a3.22,3.22,0,0,0-.07-.7,2.47,2.47,0,0,0-.81-1.33,2.26,2.26,0,0,0-1.51-.54,2.31,2.31,0,0,0-2,1,4.13,4.13,0,0,0-.73,2.51,3.78,3.78,0,0,0,.7,2.38,2.33,2.33,0,0,0,2,1,2.18,2.18,0,0,0,1.78-.82A2.68,2.68,0,0,0,447,306.64Z" transform="translate(-257 -278)"/><path d="M468.6,305.78a5.37,5.37,0,0,1-1.33,3.76,4.86,4.86,0,0,1-3.72,1.51A4.62,4.62,0,0,1,460,309.6a5.23,5.23,0,0,1-1.32-3.65,5.33,5.33,0,0,1,1.36-3.78,4.81,4.81,0,0,1,3.69-1.47,4.7,4.7,0,0,1,3.59,1.45A5.17,5.17,0,0,1,468.6,305.78Zm-2.33.07a4.42,4.42,0,0,0-.61-2.35,2.24,2.24,0,0,0-2-1.19,2.27,2.27,0,0,0-2.07,1.19,4.4,4.4,0,0,0-.61,2.39,4.45,4.45,0,0,0,.61,2.36,2.28,2.28,0,0,0,2,1.18,2.26,2.26,0,0,0,2-1.21A4.41,4.41,0,0,0,466.27,305.85Z" transform="translate(-257 -278)"/><path d="M480.73,310.82h-2.25v-5.68c0-1.75-.68-2.62-2.05-2.62a2.06,2.06,0,0,0-1.63.72,2.54,2.54,0,0,0-.62,1.7v5.88h-2.26v-7.08c0-.87,0-1.82-.08-2.84h2l.1,1.55H474a3.1,3.1,0,0,1,1.17-1.19,3.86,3.86,0,0,1,2-.56,3.26,3.26,0,0,1,2.36.9,4.29,4.29,0,0,1,1.17,3.28Z" transform="translate(-257 -278)"/><path d="M495.91,302.56h-2.48v4.81c0,1.23.44,1.84,1.31,1.84a4.15,4.15,0,0,0,1-.1l.05,1.67a5.27,5.27,0,0,1-1.75.24,2.71,2.71,0,0,1-2.08-.79,3.79,3.79,0,0,1-.76-2.67v-5h-1.48v-1.65h1.48v-1.82l2.21-.65v2.46h2.49v1.66Z" transform="translate(-257 -278)"/><path d="M507.85,310.82h-2.26v-5.64c0-1.77-.68-2.66-2-2.66a2.14,2.14,0,0,0-2.15,1.54,2.62,2.62,0,0,0-.11.8v6H499V296.36h2.25v6h0a3.43,3.43,0,0,1,3.05-1.63,3.17,3.17,0,0,1,2.32.9,4.44,4.44,0,0,1,1.15,3.33Z" transform="translate(-257 -278)"/><path d="M520.16,305.39a5.53,5.53,0,0,1-.08,1h-6.76a2.87,2.87,0,0,0,1,2.25,3.41,3.41,0,0,0,2.21.69,7.54,7.54,0,0,0,2.74-.47l.35,1.53a8.65,8.65,0,0,1-3.41.62,5,5,0,0,1-3.7-1.36,4.94,4.94,0,0,1-1.34-3.64,5.55,5.55,0,0,1,1.25-3.73,4.34,4.34,0,0,1,3.54-1.59,3.81,3.81,0,0,1,3.32,1.59A5.15,5.15,0,0,1,520.16,305.39Zm-2.15-.57a2.94,2.94,0,0,0-.43-1.69,2,2,0,0,0-1.8-.92,2.13,2.13,0,0,0-1.79.9,3.24,3.24,0,0,0-.67,1.71Z" transform="translate(-257 -278)"/></g></g></svg>