<svg xmlns="http://www.w3.org/2000/svg" viewBox="0 0 48 48">
  
<g transform="matrix(2,0,0,2,0,0)"><g>
    <path d="M20,22.5l-1.34-4a2,2,0,0,0,1.84-2,3,3,0,0,0,3-3V12A3,3,0,0,0,21,9.05,3.53,3.53,0,0,0,17.5,5.5a4,4,0,0,0-4-4h-3a4,4,0,0,0-4,4A3.5,3.5,0,0,0,3,9a2.5,2.5,0,0,0-.06,5H8a2.5,2.5,0,0,0,2.5,2.5H15l2,6" style="fill: none;stroke: #22ac87;stroke-linecap: round;stroke-linejoin: round"></path>
    <path d="M8,14a2.5,2.5,0,0,1,2.5-2.5" style="fill: none;stroke: #22ac87;stroke-linecap: round;stroke-linejoin: round"></path>
    <path d="M13.5,11.5a2.5,2.5,0,0,1,5,0" style="fill: none;stroke: #22ac87;stroke-linecap: round;stroke-linejoin: round"></path>
    <path d="M14,4.5A2.5,2.5,0,0,1,11.5,7H10A2.5,2.5,0,0,0,7.5,9.5" style="fill: none;stroke: #22ac87;stroke-linecap: round;stroke-linejoin: round"></path>
    <path d="M6.5,5.5A3.49,3.49,0,0,1,9.42,7.07" style="fill: none;stroke: #22ac87;stroke-linecap: round;stroke-linejoin: round"></path>
    <path d="M21,12.5A1.5,1.5,0,0,1,19.5,14" style="fill: none;stroke: #22ac87;stroke-linecap: round;stroke-linejoin: round"></path>
  </g></g></svg>