<svg xmlns="http://www.w3.org/2000/svg" viewBox="0 0 96 96" id="Brain-Head-1--Streamline-Ultimate.svg" height="96" width="96"><desc>Brain Head 1 Streamline Icon: https://streamlinehq.com</desc><path d="M85.72 39.44a29.84 29.84 0 0 1 -2.88 -5.8c0 -21.08 -19.48 -33.64 -38.28 -33.64a39.72 39.72 0 0 0 -40 40.24c0 14 5.08 24.52 15.12 31.28a1.92 1.92 0 0 1 0.88 1.64v20.84a2 2 0 0 0 2 2h40a2 2 0 0 0 2 -2v-12a2 2 0 0 1 2 -2h6a10 10 0 0 0 10 -10v-8a2 2 0 0 1 2 -2h2.2a5.2 5.2 0 0 0 4 -2.08 5.08 5.08 0 0 0 0.76 -3 30.8 30.8 0 0 0 -5.8 -15.48Zm-28 0.52a1.92 1.92 0 0 0 -1.8 0.76 14.2 14.2 0 0 1 -9.52 5.2 1.96 1.96 0 0 0 -1.56 1.08A16 16 0 0 1 30.56 56a16.56 16.56 0 0 1 -16 -17 17.44 17.44 0 0 1 5.8 -13.08 2.16 2.16 0 0 0 0.64 -1.04A13.96 13.96 0 0 1 34.56 14a13.24 13.24 0 0 1 3.32 0.4 2 2 0 0 0 2.12 -0.56 12 12 0 0 1 8.72 -4 12 12 0 0 1 9.92 5.2A2.04 2.04 0 0 0 60 16a12 12 0 0 1 -2.4 24Z" fill="#22ac87" stroke-width="1"></path></svg>