<svg xmlns="http://www.w3.org/2000/svg" viewBox="0 0 48 48">
  
<g transform="matrix(2,0,0,2,0,0)"><g>
    <path d="M18.11,13.26a1,1,0,0,0,1-1,3.45,3.45,0,0,0-6.89,0,1,1,0,0,0,2,0,1.45,1.45,0,0,1,2.89,0A1,1,0,0,0,18.11,13.26Z" style="fill: #2ABB99"></path>
    <path d="M21.73,9.19a.47.47,0,0,1-.28-.35,4.45,4.45,0,0,0-3.12-3.28A.53.53,0,0,1,18,5.2a4.9,4.9,0,0,0-4.76-3.72H10.78A4.9,4.9,0,0,0,6,5.2a.53.53,0,0,1-.35.36A4.44,4.44,0,0,0,2.6,8.66.53.53,0,0,1,2.28,9a3.45,3.45,0,0,0,1.11,6.7H7.13a.48.48,0,0,1,.46.31,3.46,3.46,0,0,0,3.19,2.13h2.7a.51.51,0,0,1,.49.4l.7,3.19a1,1,0,1,0,2-.43l-1-4.37a1,1,0,0,0-1-.79h-3.9a1.45,1.45,0,0,1-.48-2.81,1,1,0,1,0-.66-1.88,3.43,3.43,0,0,0-2,1.94.5.5,0,0,1-.47.31H3.39a1.45,1.45,0,0,1,.06-2.89,1,1,0,0,0,1-1A2.42,2.42,0,0,1,6.87,7.39a2.88,2.88,0,0,1,.59.07.53.53,0,0,1,.35.32.52.52,0,0,1-.07.47,3.39,3.39,0,0,0-.66,1.61,1,1,0,0,0,2,.26A1.45,1.45,0,0,1,10.5,8.86h.76a3.46,3.46,0,0,0,3.45-3.45,1,1,0,0,0-2,0,1.45,1.45,0,0,1-1.45,1.45H10.5a.79.79,0,0,1-.56-.23A4.44,4.44,0,0,0,8.49,5.7a.5.5,0,0,1-.29-.3.49.49,0,0,1,0-.41,2.91,2.91,0,0,1,2.55-1.51h2.44a2.92,2.92,0,0,1,2.91,2.91,1,1,0,0,0,1,1,2.44,2.44,0,0,1,2.42,2.48,1,1,0,0,0,.84,1A1.93,1.93,0,0,1,22,12.75v1.47a1.93,1.93,0,0,1-1.93,1.93,1,1,0,0,0-1,1,1,1,0,0,1-.88,1,1,1,0,0,0-.73.4,1,1,0,0,0-.17.82l.56,2.43a1,1,0,0,0,1.95-.45l-.27-1.17a.52.52,0,0,1,.21-.53,3,3,0,0,0,1.1-1.31.47.47,0,0,1,.32-.29A3.94,3.94,0,0,0,24,14.22V12.75A3.92,3.92,0,0,0,21.73,9.19Z" style="fill: #2ABB99"></path>
  </g></g></svg>