<svg xmlns="http://www.w3.org/2000/svg" viewBox="-1.505 -1.505 96 96" id="Brain-Head-1--Streamline-Ultimate.svg" height="96" width="96"><desc>Brain Head 1 Streamline Icon: https://streamlinehq.com</desc><defs></defs><title>brain-head-1</title><path d="M33.53451875 91.05270833333333v-11.62375H29.2221075a11.62375 11.62375 0 0 1 -11.62375 -11.62375v-11.62375h-10.461375a1.9372916666666666 1.9372916666666666 0 0 1 -1.8443016666666665 -2.5339775C13.328566666666667 28.80752708333333 18.907966666666667 1.9372916666666666 50.001497916666665 1.9372916666666666a37.742316249999995 37.742316249999995 0 0 1 22.278854166666665 68.23528708333333V91.05270833333333Z" fill="#b6e8d7" stroke-width="3.01"></path><path d="M72.14086708333333 27.691647083333333a11.488139583333332 11.488139583333332 0 0 0 -16.56771833333333 -9.039402916666667 9.6477125 9.6477125 0 0 0 -17.38913 0.7981641666666666c-0.25959708333333337 0 -0.511445 -0.07749166666666667 -0.7749166666666667 -0.07749166666666667a9.686458333333333 9.686458333333333 0 1 0 0 19.372916666666665 9.54309875 9.54309875 0 0 0 3.0764191666666667 -0.54631625 11.523010833333334 11.523010833333334 0 0 0 10.4846225 6.35819125c0.27509541666666665 0 0.5346925 -0.05811875 0.8097879166666666 -0.07749166666666667A13.626909583333333 13.626909583333333 0 0 0 64.53118541666667 54.244166666666665a14.072486666666666 14.072486666666666 0 0 0 13.561041666666666 -14.5296875 14.812532083333332 14.812532083333332 0 0 0 -5.95136 -12.022832083333334Z" fill="#22ac87" stroke-width="3.01"></path><path d="M43.54644208333333 24.715967083333332a36.254476249999996 36.254476249999996 0 0 1 33.07731791666667 21.44581875 15.16899375 15.16899375 0 0 0 1.4684670833333333 -6.447306666666666 14.812532083333332 14.812532083333332 0 0 0 -5.95136 -12.011208333333334 11.488139583333332 11.488139583333332 0 0 0 -16.56771833333333 -9.039402916666667 9.6477125 9.6477125 0 0 0 -17.38913 0.7981641666666666c-0.25959708333333337 0 -0.511445 -0.07749166666666667 -0.7749166666666667 -0.07749166666666667a9.659336249999999 9.659336249999999 0 0 0 -9.616715833333334 8.969660416666667 36.09174375 36.09174375 0 0 1 15.754055833333332 -3.63823375Z" fill="#b6e8d7" stroke-width="3.01"></path><path d="M33.53451875 91.05270833333333v-11.62375H29.2221075a11.62375 11.62375 0 0 1 -11.62375 -11.62375v-11.62375h-10.461375a1.9372916666666666 1.9372916666666666 0 0 1 -1.8443016666666665 -2.5339775C13.328566666666667 28.80752708333333 18.907966666666667 1.9372916666666666 50.001497916666665 1.9372916666666666a37.742316249999995 37.742316249999995 0 0 1 22.278854166666665 68.23528708333333V91.05270833333333" fill="none" stroke="#00303e" stroke-linecap="round" stroke-linejoin="round" stroke-width="3.01"></path><path d="M72.14086708333333 27.691647083333333a11.488139583333332 11.488139583333332 0 0 0 -16.56771833333333 -9.039402916666667 9.6477125 9.6477125 0 0 0 -17.38913 0.7981641666666666c-0.25959708333333337 0 -0.511445 -0.07749166666666667 -0.7749166666666667 -0.07749166666666667a9.686458333333333 9.686458333333333 0 1 0 0 19.372916666666665 9.54309875 9.54309875 0 0 0 3.0764191666666667 -0.54631625 11.523010833333334 11.523010833333334 0 0 0 10.4846225 6.35819125c0.27509541666666665 0 0.5346925 -0.05811875 0.8097879166666666 -0.07749166666666667A13.626909583333333 13.626909583333333 0 0 0 64.53118541666667 54.244166666666665a14.072486666666666 14.072486666666666 0 0 0 13.561041666666666 -14.5296875 14.812532083333332 14.812532083333332 0 0 0 -5.95136 -12.022832083333334Z" fill="none" stroke="#00303e" stroke-linecap="round" stroke-linejoin="round" stroke-width="3.01"></path><path d="m40.48552125 38.19951708333333 1.1430020833333332 -3.5142470833333332a11.178172916666666 11.178172916666666 0 0 1 5.083453333333334 -6.2419537499999995l2.32475 -1.3212329166666668" fill="none" stroke="#00303e" stroke-linecap="round" stroke-linejoin="round" stroke-width="3.01"></path><path d="m70.62977958333333 23.173882916666667 -2.092275 0.5269433333333333A11.14717625 11.14717625 0 0 0 60.65660208333333 30.996666666666666h0" fill="none" stroke="#00303e" stroke-linecap="round" stroke-linejoin="round" stroke-width="3.01"></path><path d="M70.45929791666666 52.78732333333333a18.694864583333334 18.694864583333334 0 0 0 -5.811875 -10.500120833333334" fill="none" stroke="#00303e" stroke-linecap="round" stroke-linejoin="round" stroke-width="3.01"></path></svg>