<svg id="Layer_1" data-name="Layer 1" xmlns="http://www.w3.org/2000/svg" viewBox="0 0 97.26 97.26"><defs><style>.cls-1{fill:#fff;}</style></defs><path class="cls-1" d="M44.09,246.75c4,.22,5.18-7.65,1.41-7.86C41.32,238.66,40,246.52,44.09,246.75Z" transform="translate(-7.16 -223.34)"/><path class="cls-1" d="M18.7,241.25H16L15,246.52h1.85a8.54,8.54,0,0,0,1.89-.12C22,245.6,22.32,241.25,18.7,241.25Z" transform="translate(-7.16 -223.34)"/><path class="cls-1" d="M57.06,246.52c4.17.24,5.51-7.6,1.41-7.83S53.29,246.32,57.06,246.52Z" transform="translate(-7.16 -223.34)"/><path class="cls-1" d="M19.66,234.34H17.18l-.89,5h1.89a5.39,5.39,0,0,0,1.66-.15C22.4,238.39,22.63,234.34,19.66,234.34Z" transform="translate(-7.16 -223.34)"/><path class="cls-1" d="M7.16,223.34v97.27h97.27V223.34Zm44.93,19.57c.36-3.12,2.47-6,6-6a4,4,0,0,1,3.7,1.95l.33-1.72h2.44l-2,11.25H61.9a1.43,1.43,0,0,1-1.48-1.69l0-.17a4.5,4.5,0,0,1-4.11,2.09C54,248.57,51.69,246.48,52.09,242.91Zm-28,1.06a5.12,5.12,0,0,1-4.24,4.19,17.08,17.08,0,0,1-2.89.17H11.87l2.8-15.74h5.56c2.86,0,4.5,1.18,4.5,3.72a4,4,0,0,1-3.17,3.8A3.27,3.27,0,0,1,24.09,244Zm13-5.18c0,.41-.8,4.49-1,5.29-.47,2.44-1.95,4.5-5.89,4.5-2.28,0-4.12-1.28-4.36-3.38a6.23,6.23,0,0,1,.1-1.66c.27-1.55,1-5.5,1.14-6.44h.65c.85,0,1.88.48,1.67,1.69-.07.36-.84,4.85-.94,5.46a1.86,1.86,0,0,0,2,2.28,2.69,2.69,0,0,0,3-2.55c.12-.7,1.2-6.88,1.2-6.88h.73A1.46,1.46,0,0,1,37.11,238.79Zm.34,11.87c.29-1.46,2.4-13.56,2.4-13.56h.78a1.41,1.41,0,0,1,1.48,1.69l0,.15a5,5,0,0,1,4.23-2.07c2.4,0,4.48,2,4.24,5.56-.23,3.32-2.48,6.15-6.11,6.15a4.09,4.09,0,0,1-3.72-2l-1.14,6.2h-.64A1.61,1.61,0,0,1,37.45,250.66Zm61.79,4.81c-.19,0-.86,0-1.5,0a14.2,14.2,0,0,1-3.47-.37,13,13,0,0,1-4-1.95l-.43-.31c-.82-.55-1.39-.55-1.89,0-.34.36-1.48,2-2.48,3.54-.41.61-.79,1.18-1.1,1.62a2.94,2.94,0,0,1-2.14,1.44c-.6,0-1.09-.41-1.41-1.18-.57-1.39-.95-15-1.09-22.69v0c0-.17-.11-.25-.2-.25a.25.25,0,0,0-.23.22s0,.19-.12.51c-1.77,7.63-6,25.86-6.68,28.08-.52,1.66-1.45,2.74-2.36,2.74-.59,0-1.11-.49-1.46-1.37A45.94,45.94,0,0,1,67,258.93c-.12-.55-.22-1-.3-1.36-.17-.7-.38-1.17-.83-1.17a2.78,2.78,0,0,0-1.35.68,9.58,9.58,0,0,1-5.28,2.07H38.41l.48-2.62H58.67a6.24,6.24,0,0,0,4.31-2,11.84,11.84,0,0,1,1.11-.88c1.68-1.11,3.06-1,4,.29.82,1.16,1.23,3.28,1.72,5.72.15.78.31,1.7.49,2.51a.17.17,0,1,0,.33,0c1.62-7.93,5.36-23.54,7.12-30.57.69-2.76,1.79-3.74,2.53-3.74.91,0,1.57,1.32,1.71,3.43.32,4.78.78,20.8.82,23.73,0,.08,0,.3.17.3a.26.26,0,0,0,.2-.14,44.08,44.08,0,0,1,3.54-4.74,3.11,3.11,0,0,1,2.17-1.21,3,3,0,0,1,1.68.63c.53.35,1,.72,1.49,1.08a10.5,10.5,0,0,0,2.83,1.76,12.24,12.24,0,0,0,3.34.35c.59,0,1.23,0,1.47,0Z" transform="translate(-7.16 -223.34)"/></svg>