<svg xmlns="http://www.w3.org/2000/svg" viewBox="0 0 48 48">
  
<g transform="matrix(2,0,0,2,0,0)"><g>
    <path d="M21.57,12.13H16.43a.51.51,0,0,0-.46.3L14.82,15a1.53,1.53,0,0,1-1.36.89h0a1.51,1.51,0,0,1-1.36-.87L10,10.57a.24.24,0,0,0-.21-.14.22.22,0,0,0-.22.11l-.62.92a1.5,1.5,0,0,1-1.25.67H2.43a.25.25,0,0,0-.23.16.24.24,0,0,0,.06.27l9,9.26a1,1,0,0,0,1.5,0l9-9.26a.26.26,0,0,0-.18-.43Z" style="fill: #2ABB99"></path>
    <path d="M23.36,5.17a6.09,6.09,0,0,0-9.69-1.56L12.34,4.83a.52.52,0,0,1-.68,0L10.33,3.61A6.09,6.09,0,0,0,.64,5.17,5.85,5.85,0,0,0,.34,9.8a.5.5,0,0,0,.47.33H7.15a.5.5,0,0,0,.42-.22L8.63,8.32a1.5,1.5,0,0,1,2.61.2l2,4.2a.25.25,0,0,0,.46,0l.75-1.7a1.5,1.5,0,0,1,1.37-.89h7.41a.5.5,0,0,0,.47-.33A5.85,5.85,0,0,0,23.36,5.17Z" style="fill: #2ABB99"></path>
  </g></g></svg>