<svg xmlns="http://www.w3.org/2000/svg" viewBox="0 0 96 96" id="Money-Wallet-Open--Streamline-Ultimate.svg" height="96" width="96"><desc>Money Wallet Open Streamline Icon: https://streamlinehq.com</desc><path d="M96 15.2A14 14 0 0 0 82 1.2h-68A14.08 14.08 0 0 0 0 15.2v52A18.08 18.08 0 0 0 13.24 84c48.52 11.32 45.56 10.8 47.72 10.8a10.68 10.68 0 0 0 7.04 -2.36 11.36 11.36 0 0 0 4 -9.24v-38.76A17.08 17.08 0 0 0 59.56 28L16.24 16a3 3 0 0 1 1.56 -5.8c14.92 4 14.08 4 14.28 4H82a3 3 0 0 1 0 6h-20.96a1 1 0 0 0 -0.96 0.88 1 1 0 0 0 0.72 1.12 22.88 22.88 0 0 1 12 7.64 1 1 0 0 0 0.8 0.36h8.4a3 3 0 0 1 0 6h-4a0.96 0.96 0 0 0 -0.8 0.44 1 1 0 0 0 0 0.88 22.2 22.2 0 0 1 1.12 6.92v27.76a1 1 0 0 0 1 1h3A14 14 0 0 0 96 59.2Zm-34 46a8 8 0 1 1 -8 -8 8 8 0 0 1 8 8Z" fill="#22ac87" stroke-width="1"></path></svg>