<svg xmlns="http://www.w3.org/2000/svg" viewBox="0 0 96 96" id="Multiple-Actions-Text--Streamline-Ultimate.svg" height="96" width="96"><desc>Multiple Actions Text Streamline Icon: https://streamlinehq.com</desc><g><path d="M46 14a12 12 0 1 0 24 0 12 12 0 1 0 -24 0" fill="#22ac87" stroke-width="1"></path><path d="M44 38.76a1 1 0 0 0 1.2 0.28 12 12 0 0 1 4.8 -1.04h21.04a1 1 0 0 0 0.96 -0.6 1 1 0 0 0 0 -1.04 18.2 18.2 0 0 0 -28 0.68 1.04 1.04 0 0 0 0 1.24Z" fill="#22ac87" stroke-width="1"></path><path d="M38 50a12 12 0 0 1 1.64 -6 0.96 0.96 0 0 0 0 -1.12A22 22 0 0 0 0 56v14a2 2 0 0 0 2 2h7.24a1 1 0 0 1 1 0.92L12 94.16a2 2 0 0 0 2 1.84h16a2 2 0 0 0 2 -1.84l1.76 -21.24a1 1 0 0 1 1 -0.92h2.24a1 1 0 0 0 1 -1Z" fill="#22ac87" stroke-width="1"></path><path d="M8 14a14 14 0 1 0 28 0 14 14 0 1 0 -28 0" fill="#22ac87" stroke-width="1"></path><path d="M88 44h-36a8 8 0 0 0 -8 8v36a8 8 0 0 0 8 8h36a8 8 0 0 0 8 -8v-36a8 8 0 0 0 -8 -8Zm-36 9a1 1 0 0 1 1 -1h34a1 1 0 0 1 1 1v34a0.96 0.96 0 0 1 -0.28 0.72 1.16 1.16 0 0 1 -0.72 0.28h-34a1 1 0 0 1 -1 -1Z" fill="#22ac87" stroke-width="1"></path><path d="M80 60h-19a3 3 0 0 0 0 6H80a3 3 0 0 0 0 -6Z" fill="#22ac87" stroke-width="1"></path><path d="M70 78a3 3 0 0 0 0 -6h-9a3 3 0 0 0 0 6Z" fill="#22ac87" stroke-width="1"></path></g></svg>