<svg xmlns="http://www.w3.org/2000/svg" fill="none" viewBox="0 0 54 54" id="Number-Three-Square--Streamline-Ultimate" height="54" width="54"><desc>Number Three Square Streamline Icon: https://streamlinehq.com</desc><path fill="#22ac87" fill-rule="evenodd" d="M22.200705 18.148702500000002C23.29155 16.69644 25.035525 15.75 27 15.75c3.3138 0 6.000075 2.6862975000000002 6.000075 5.999985v0.6000525c0 1.3676625 -0.44662500000000005 2.6312625 -1.2017250000000002 3.6525375 1.206675 1.2195 1.9516499999999999 2.8964250000000002 1.9516499999999999 4.7475V31.5c0 3.728025 -3.021975 6.75 -6.75 6.75 -2.79765 0 -5.6490525 -1.74915 -6.62139 -4.500225 -0.41409 -1.171575 0.19998 -2.4570000000000003 1.3716000000000002 -2.871225 1.171665 -0.414 2.45709 0.200025 2.87109 1.3716000000000002 0.26325000000000004 0.7445250000000001 1.2575249999999998 1.49985 2.3787 1.49985 1.242675 0 2.25 -1.007325 2.25 -2.25v-0.749925c0 -1.242675 -1.007325 -2.25 -2.25 -2.25h-0.150075c-1.242675 0 -2.25 -1.007325 -2.25 -2.25s1.007325 -2.25 2.25 -2.25c0.9112500000000001 0 1.65015 -0.738675 1.65015 -1.6500374999999998v-0.6000525C28.500075000000002 20.92158 27.82845 20.25 27 20.25c-0.489375 0 -0.9238500000000001 0.231885 -1.201275 0.60129 -0.746325 0.9935775 -2.156625 1.1940300000000001 -3.150225 0.4477275 -0.993645 -0.7463025 -1.1940975 -2.1567375 -0.447795 -3.150315ZM5.625 1.125c-2.4852825000000003 0 -4.5 2.0147174999999997 -4.5 4.5v42.75c0 2.48535 2.0147174999999997 4.5 4.5 4.5h42.75c2.48535 0 4.5 -2.01465 4.5 -4.5v-42.75c0 -2.4852825000000003 -2.01465 -4.5 -4.5 -4.5h-42.75Z" clip-rule="evenodd" stroke-width="2.25"></path></svg>