<svg xmlns="http://www.w3.org/2000/svg" fill="none" viewBox="0 0 54 54" id="Number-One-Square--Streamline-Ultimate" height="54" width="54"><desc>Number One Square Streamline Icon: https://streamlinehq.com</desc><path fill="#22ac87" fill-rule="evenodd" d="M1.125 5.625c0 -2.4852825000000003 2.0147174999999997 -4.5 4.5 -4.5h42.75c2.48535 0 4.5 2.0147174999999997 4.5 4.5v42.75c0 2.48535 -2.01465 4.5 -4.5 4.5h-42.75c-2.4852825000000003 0 -4.5 -2.01465 -4.5 -4.5v-42.75ZM29.25 18c0 -1.24263 -1.007325 -2.25 -2.25 -2.25s-2.25 1.00737 -2.25 2.25v1.5003c-0.00022500000000000002 0.4140675 -0.335925 0.7497 -0.749925 0.7497L22.5 20.25c-1.24263 0 -2.25 1.0073475 -2.25 2.25 0 1.242675 1.0073475 2.25 2.25 2.25l1.5000749999999998 0c0.254475 0 0.5049 -0.018224999999999998 0.749925 -0.0531V33.75h-2.25c-1.2426525 0 -2.25 1.007325 -2.25 2.25s1.0073475 2.25 2.25 2.25h9c1.242675 0 2.25 -1.007325 2.25 -2.25s-1.007325 -2.25 -2.25 -2.25h-2.25V18Z" clip-rule="evenodd" stroke-width="2.25"></path></svg>