<svg xmlns="http://www.w3.org/2000/svg" fill="none" viewBox="0 0 54 54" id="Number-Two-Square--Streamline-Ultimate" height="54" width="54"><desc>Number Two Square Streamline Icon: https://streamlinehq.com</desc><path fill="#22ac87" fill-rule="evenodd" d="M20.37861 20.2502025C21.3509475 17.4991725 24.202350000000003 15.75 27 15.75c3.7278000000000002 0 6.75 3.022065 6.75 6.75v0.165375c0 2.40075 -1.275075 4.620825 -3.3489 5.830425l-4.5348749999999995 2.6453249999999997c-0.6911999999999999 0.4032 -1.116225 1.143225 -1.116225 1.94355V33.75h6.75c1.242675 0 2.25 1.007325 2.25 2.25s-1.007325 2.25 -2.25 2.25h-9c-1.2426525 0 -2.25 -1.007325 -2.25 -2.25v-2.915325c0 -2.40075 1.2751424999999998 -4.620825 3.3489 -5.830425l4.5348749999999995 -2.6453249999999997c0.6911999999999999 -0.4032 1.116225 -1.143225 1.116225 -1.94355V22.5c0 -1.2426525 -1.007325 -2.25 -2.25 -2.25 -1.121175 0 -2.11545 0.755235 -2.3787 1.4998049999999998 -0.414 1.1716199999999999 -1.699425 1.785645 -2.8711124999999997 1.371645 -1.1715975 -0.414225 -1.78569 -1.6996499999999999 -1.3715775 -2.8712475ZM5.625 1.125c-2.4852825000000003 0 -4.5 2.0147174999999997 -4.5 4.5v42.75c0 2.48535 2.0147174999999997 4.5 4.5 4.5h42.75c2.48535 0 4.5 -2.01465 4.5 -4.5v-42.75c0 -2.4852825000000003 -2.01465 -4.5 -4.5 -4.5h-42.75Z" clip-rule="evenodd" stroke-width="2.25"></path></svg>