<svg xmlns="http://www.w3.org/2000/svg" viewBox="0 0 48 48">
  
<g transform="matrix(2,0,0,2,0,0)"><g>
    <path d="M12.5,12.37a.25.25,0,0,0-.1-.2,4.6,4.6,0,0,1-1-.92.25.25,0,0,0-.45.16v6.8a.26.26,0,0,1-.11.21.29.29,0,0,1-.24,0c-.71-.32-2-.78-2.31-.92a.26.26,0,0,1-.16-.18,2.1,2.1,0,0,1,0-.66.31.31,0,0,1,.06-.13,4,4,0,0,0,1-3,2.8,2.8,0,0,0-2.74-3,2.8,2.8,0,0,0-2.74,3,4,4,0,0,0,1,3,.31.31,0,0,1,0,.1,2.36,2.36,0,0,1,0,.66.27.27,0,0,1-.16.22c-.41.15-1.64.62-2.34.93a.26.26,0,0,1-.24,0A.26.26,0,0,1,2,18.21V6.91a.41.41,0,0,1,.42-.41h7.83a.25.25,0,0,0,.25-.25v-2A.25.25,0,0,0,10.25,4H2.44A2.44,2.44,0,0,0,0,6.44V21.06A2.44,2.44,0,0,0,2.44,23.5h8.12A2.44,2.44,0,0,0,13,21.06v-6a.24.24,0,0,0-.05-.14,2.58,2.58,0,0,1-.45-1.44Z" style="fill: #2ABB99"></path>
    <path d="M21,.5H15a3,3,0,0,0-3,3v5a3,3,0,0,0,1.85,2.77.25.25,0,0,1,.15.23v2a1,1,0,0,0,1,1,1,1,0,0,0,.83-.45l1.63-2.44a.26.26,0,0,1,.21-.11H21a3,3,0,0,0,3-3v-5A3,3,0,0,0,21,.5Zm1,8a1,1,0,0,1-1,1H17a1,1,0,0,0-.83.44.21.21,0,0,1-.34,0A1,1,0,0,0,15,9.5a1,1,0,0,1-1-1v-5a1,1,0,0,1,1-1h6a1,1,0,0,1,1,1Z" style="fill: #2ABB99"></path>
    <path d="M20,3.75H16a.75.75,0,0,0,0,1.5h4a.75.75,0,0,0,0-1.5Z" style="fill: #2ABB99"></path>
    <path d="M20,6.75H16a.75.75,0,0,0,0,1.5h4a.75.75,0,0,0,0-1.5Z" style="fill: #2ABB99"></path>
  </g></g></svg>