<svg xmlns="http://www.w3.org/2000/svg" viewBox="0 0 48 48">
  
<g transform="matrix(2,0,0,2,0,0)"><g>
    <path d="M21.89,2.11a7.22,7.22,0,0,0-10.2,0L2.12,11.69A7.2,7.2,0,0,0,7.21,24h0a7.15,7.15,0,0,0,5.1-2.1l9.58-9.58A7.13,7.13,0,0,0,24,7.22,7.16,7.16,0,0,0,21.89,2.11ZM20.48,10.9l-3.73,3.72a.5.5,0,0,1-.71,0L9.38,8a.51.51,0,0,1,0-.71l3.73-3.72a5.21,5.21,0,0,1,7.37,7.37Z" style="fill: #2ABB99"></path>
    <path d="M16.63,3.16a4.13,4.13,0,0,0-2.91,1.2.75.75,0,0,0,0,1.06.74.74,0,0,0,1.06,0,2.7,2.7,0,0,1,3.7,0,.74.74,0,0,0,.53.22.71.71,0,0,0,.53-.22.74.74,0,0,0,0-1.06A4.1,4.1,0,0,0,16.63,3.16Z" style="fill: #2ABB99"></path>
  </g></g></svg>