<svg xmlns="http://www.w3.org/2000/svg" viewBox="0 0 299 95"><defs><style>.cls-1{fill:#fff;}.cls-2{fill:#05d4fb;}.cls-3{fill:#06ef79;}.cls-4{fill:#fccf02;}.cls-5{fill:#f9374a;}.cls-6{fill-rule:evenodd;}</style></defs><g id="Layer_3" data-name="Layer 3"><rect class="cls-1" width="299" height="95" rx="12"/></g><g id="Layer_1" data-name="Layer 1"><path class="cls-2" d="M633.93,298.32a3.35,3.35,0,0,0-1,2.37v50.63a3.52,3.52,0,0,0,.1.81l28.19-27.25Z" transform="translate(-610 -278)"/><path class="cls-3" d="M671,315.48l-32.78-17.79a3.57,3.57,0,0,0-4.25.63l27.32,26.56Z" transform="translate(-610 -278)"/><path class="cls-4" d="M681.9,321.41,671,315.48l-9.71,9.4L673,336.33l8.76-4.52A5.85,5.85,0,0,0,681.9,321.41Z" transform="translate(-610 -278)"/><path class="cls-5" d="M633.06,352.13a3.53,3.53,0,0,0,5.05,2.22l34.92-18-11.78-11.45Z" transform="translate(-610 -278)"/><g id="g1237"><path id="path1233" class="cls-6" d="M703.43,335a15.16,15.16,0,0,1,15.21-14.91,14.35,14.35,0,0,1,10.27,4.11L726,327.07a10.47,10.47,0,0,0-7.39-2.91,10.84,10.84,0,0,0,0,21.68,10,10,0,0,0,7.56-3,8.43,8.43,0,0,0,2.23-5.12h-9.79v-4.07h13.79a13.73,13.73,0,0,1,.22,2.54,13.44,13.44,0,0,1-3.55,9.53,13.76,13.76,0,0,1-10.46,4.19A15.16,15.16,0,0,1,703.43,335Zm40.36-4.29a9.6,9.6,0,1,0,9.68,9.6A9.5,9.5,0,0,0,743.79,330.71Zm0,15.42a5.83,5.83,0,1,1,5.44-5.82A5.57,5.57,0,0,1,743.79,346.13Zm21.13-15.42a9.6,9.6,0,1,0,9.69,9.6,9.49,9.49,0,0,0-9.69-9.6Zm0,15.42a5.83,5.83,0,1,1,5.45-5.82,5.56,5.56,0,0,1-5.45,5.82Zm26-14.84v1.57h-.15a6.66,6.66,0,0,0-5.08-2.15,9.61,9.61,0,0,0,0,19.2,6.57,6.57,0,0,0,5.08-2.18h.15v1.38c0,3.67-2,5.64-5.16,5.64a5.35,5.35,0,0,1-4.86-3.41l-3.7,1.52a9.2,9.2,0,0,0,8.56,5.68c5,0,9.17-2.92,9.17-10V331.29ZM786,346.13a5.83,5.83,0,0,1,0-11.63c2.88,0,5.15,2.47,5.15,5.85S788.9,346.13,786,346.13Zm11.8-25h4.25v28.22h-4.25Zm15.88,25a4.9,4.9,0,0,1-4.68-2.91l12.91-5.31-.45-1.09c-.8-2.14-3.25-6.11-8.26-6.11s-9.11,3.89-9.11,9.6a9.43,9.43,0,0,0,9.59,9.6,9.6,9.6,0,0,0,8-4.26l-3.29-2.17a5.52,5.52,0,0,1-4.75,2.65Zm-.34-11.71a3.76,3.76,0,0,1,3.59,2L808.3,340a5.28,5.28,0,0,1,5.05-5.6Z" transform="translate(-610 -278)"/><path id="path1235" class="cls-6" d="M841.54,321.11H831.21v28.22h4.31V338.64h6c4.78,0,9.48-3.38,9.48-8.77s-4.7-8.76-9.47-8.76Zm.11,13.6h-6.13V325h6.13a4.84,4.84,0,1,1,0,9.67Zm16.05,14.62V321.11h-4.31v28.22Zm19.36-.05V338.46c0-5-3.83-7.8-8.78-7.8-3.11,0-6.35,1.34-7.68,4.32l3.82,1.56a4.11,4.11,0,0,1,3.94-2.07c2.23,0,4.49,1.3,4.53,3.63v.29a9.78,9.78,0,0,0-4.5-1.09c-4.12,0-8.32,2.22-8.32,6.35,0,3.78,3.39,6.21,7.17,6.21a6.13,6.13,0,0,0,5.5-2.75h.15v2.18h4.17Zm-9.29-3.15c-1.41,0-3.38-.69-3.38-2.4,0-2.18,2.45-3,4.57-3a7.8,7.8,0,0,1,3.94,1,5.2,5.2,0,0,1-5.13,4.47Zm24.44-14.85-4.94,12.23h-.15L882,331.28h-4.64l7.69,17.1-4.39,9.51h4.5L897,331.28Z" transform="translate(-610 -278)"/></g><path d="M772.33,311.19a7.09,7.09,0,0,1-7.21-7.15,6.87,6.87,0,0,1,2.07-5.07,7,7,0,0,1,5.13-2.07,7.06,7.06,0,0,1,5.14,2.07,7.21,7.21,0,0,1,0,10.13A6.9,6.9,0,0,1,772.33,311.19Zm-60.9,0a7.23,7.23,0,0,1-5.16-2.05,7.16,7.16,0,0,1,0-10.19,7.13,7.13,0,0,1,5.16-2.05,7.38,7.38,0,0,1,2.88.59A5.77,5.77,0,0,1,716.5,299l.14.16-1.53,1.46-.16-.18a4.39,4.39,0,0,0-3.54-1.49,5,5,0,0,0-3.54,1.41,5.26,5.26,0,0,0,0,7.34,5.26,5.26,0,0,0,7.17,0,3.76,3.76,0,0,0,1-2.3h-4.9v-2.06h7l0,.19a7.47,7.47,0,0,1,.1,1,6.16,6.16,0,0,1-1.75,4.58A6.93,6.93,0,0,1,711.43,311.19Zm81-.3h-2.16l-6.61-10.34.06,1.86v8.48h-2.16v-13.7H784l.07.11,6.22,9.74-.06-1.86v-8h2.18v13.7Zm-36.3,0h-2.19V299.26h-3.79v-2.07h9.77v2.07H756.1v11.63Zm-7.76,0h-2.18v-13.7h2.18Zm-12.27,0h-2.18V299.26H730.1v-2.07h9.77v2.07h-3.8Zm-7.35,0h-8.37V297.19h8.37v2.07h-6.18V303h5.57v2h-5.57v3.76h6.18Zm40.07-3.18a4.91,4.91,0,0,0,3.54,1.43,4.75,4.75,0,0,0,3.54-1.43,5.33,5.33,0,0,0,0-7.29,4.85,4.85,0,0,0-3.53-1.44,4.7,4.7,0,0,0-3.53,1.44,5.33,5.33,0,0,0,0,7.29Z" transform="translate(-610 -278)"/></g></svg>