<?xml version="1.0" encoding="utf-8"?>
<!-- Generator: Adobe Illustrator 26.0.2, SVG Export Plug-In . SVG Version: 6.00 Build 0)  -->
<svg version="1.1" id="Layer_1" xmlns="http://www.w3.org/2000/svg" xmlns:xlink="http://www.w3.org/1999/xlink" x="0px" y="0px"
	 viewBox="0 0 413 106" style="enable-background:new 0 0 413 106;" xml:space="preserve">
<style type="text/css">
	.st0{display:none;fill:#F40000;}
	.st1{fill:#FFFFFF;}
</style>
<rect y="-23" class="st0" width="447" height="143"/>
<g>
	<path class="st1" d="M140.96,47.93v1.26h-4.07v-0.84c0-5.45-3.17-9.34-11.61-9.34c-8.56,0-11.85,3.23-11.85,8.02v0.48
		c0,6.22,5.15,6.88,13.05,8.68c7.54,1.68,14.66,3.59,14.66,12.69v0.48c0,6.76-5.33,11.85-16.04,11.85
		c-11.61,0-16.46-5.15-16.46-12.93v-1.44h4.13v1.08c0,4.97,2.33,9.4,12.27,9.4c9.28,0,11.79-4.13,11.79-7.9v-0.78
		c0-5.57-5.03-7-12.81-8.74c-8.08-1.8-14.9-3.05-14.9-12.51v-0.36c0-7.36,5.33-11.97,16.04-11.97
		C136.11,35.07,140.96,40.21,140.96,47.93z"/>
	<path class="st1" d="M146.4,69.96c0-6.58,3.47-10.53,13.64-10.53c5.03,0,8.92,0.9,10.53,2.93v-5.45c0-4.97-2.69-8.62-9.46-8.62
		c-5.33,0-9.4,2.09-9.4,6.88h-4.13c0-6.76,4.43-10.77,13.17-10.77h1.14c8.68,0,12.99,5.03,12.99,12.63v12.99
		c0,7.24-6.04,11.13-13.76,11.13h-1.26c-8.32,0-13.47-3.35-13.47-10.41V69.96z M170.58,69.84c0-4.73-2.63-6.88-9.99-6.88
		c-7.06,0-9.93,2.09-9.93,6.88v0.9c0,4.55,3.65,6.7,9.93,6.7c6.4,0,9.99-3.11,9.99-6.88V69.84z"/>
	<path class="st1" d="M188.29,48.71v31.84h-4.31V48.71h-4.55V45h4.61c0.6-8.74,4.85-10.89,14.78-10.89h1.62v3.65h-0.48
		c-8.08,0-11.19,1.02-11.61,7.24h12.09v3.71H188.29z"/>
	<path class="st1" d="M207.49,64.03v4.31c0,4.31,2.03,8.92,10.59,8.92c7,0,10.17-2.33,10.17-6.88v-0.42h4.13v0.84
		c0,5.75-4.25,10.29-14.3,10.29c-10.17,0-14.72-4.97-14.72-12.45V56.85c0-7.48,4.73-12.45,14.6-12.45c9.75,0,14.42,4.91,14.42,12.45
		v7.18H207.49z M207.49,60.5h20.77v-3.35c0-5.45-2.87-8.92-10.29-8.92c-7.72,0-10.47,3.89-10.47,8.98V60.5z"/>
	<path class="st1" d="M243.94,80.55h-4.25V55.71c0-6.76,3.83-11.31,12.45-11.31c6.22,0,9.4,1.86,11.43,5.39
		c1.98-3.53,5.15-5.39,11.43-5.39c8.62,0,12.39,4.55,12.39,11.31v24.84h-4.25V55.89c0-4.37-2.45-7.6-8.68-7.6
		c-6.34,0-8.8,3.23-8.8,7.6v24.66h-4.25V55.89c0-4.37-2.45-7.6-8.68-7.6c-6.34,0-8.8,3.23-8.8,7.6V80.55z"/>
	<path class="st1" d="M297.85,38.48c-1.5,0-2.45-1.02-2.45-2.57c0-1.56,0.96-2.51,2.45-2.51h1.02c1.5,0,2.39,0.96,2.39,2.51
		c0,1.56-0.9,2.57-2.39,2.57H297.85z M300.42,45v35.55h-4.25V45H300.42z"/>
	<path class="st1" d="M337.65,80.55h-4.25V57.27c0-5.21-2.81-8.98-10.05-8.98s-10.05,3.77-10.05,8.98v23.28h-4.31V57.09
		c0-7.6,4.49-12.69,14.36-12.69c9.93,0,14.3,5.09,14.3,12.69V80.55z"/>
	<path class="st1" d="M345,57.09c0-7.24,3.95-12.69,13.11-12.69c6.7,0,9.81,2.51,11.25,4.79V34.47h4.25V68.4
		c0,7.24-4.43,12.69-14.36,12.69c-9.93,0-14.24-5.45-14.24-12.69V57.09z M359.24,77.2c7.3,0,10.11-3.83,10.11-8.98V57.27
		c0-5.15-2.81-8.98-10.11-8.98c-7.24,0-9.99,3.83-9.99,8.98v10.95C349.25,73.37,352,77.2,359.24,77.2z"/>
	<path class="st1" d="M395.33,60.92c5.75,1.08,12.45,2.21,12.45,9.46v0.6c0,6.46-4.91,10.11-13.7,10.11c-9.4,0-14-3.89-14-9.69v-1.5
		h4.25v0.96c0,4.07,2.93,6.52,9.69,6.52c6.88,0,9.52-2.63,9.52-6.28c0-4.79-4.67-5.33-10.41-6.4c-6.46-1.26-12.69-2.39-12.69-10.05
		v-0.42c0-5.98,4.37-9.81,13.52-9.81s13.47,4.07,13.47,10.05v0.72h-4.19v-0.42c0-4.13-2.99-6.64-9.22-6.64
		c-6.46,0-9.28,2.39-9.28,6.1C384.74,59.36,389.76,59.84,395.33,60.92z"/>
</g>
<g>
	<path class="st1" d="M53.04,43.02c-1.39-0.56-2.98,0.12-3.54,1.51c-0.56,1.39,0.12,2.98,1.51,3.54c1.39,0.56,2.98-0.12,3.54-1.52
		C55.12,45.17,54.44,43.58,53.04,43.02 M59.85,45.67c0.01-0.83,0.84-1.59,2.22-2.19c-0.19-0.88-0.49-1.72-0.89-2.5
		c-1.45,0.41-2.57,0.34-3.1-0.31c-0.53-0.64-0.38-1.76,0.3-3.1c-0.69-0.54-1.46-1-2.29-1.35c-0.85,1.24-1.75,1.91-2.57,1.76
		c-0.82-0.15-1.42-1.1-1.77-2.57c-0.9,0.03-1.78,0.18-2.62,0.44c0.15,1.5-0.11,2.59-0.84,3c-0.73,0.41-1.8,0.07-3-0.83
		c-0.66,0.59-1.24,1.27-1.73,2.02c1.08,1.05,1.58,2.06,1.29,2.84c-0.29,0.78-1.33,1.21-2.83,1.29c-0.13,0.9-0.13,1.79-0.03,2.65
		c1.5,0.11,2.53,0.56,2.81,1.35c0.28,0.79-0.24,1.78-1.34,2.81c0.47,0.75,1.04,1.44,1.69,2.05c1.22-0.88,2.3-1.2,3.02-0.77
		c0.72,0.42,0.96,1.52,0.78,3.01c0.42,0.14,0.85,0.24,1.29,0.33c0.44,0.08,0.88,0.13,1.32,0.16c0.37-1.46,0.99-2.39,1.82-2.53
		c0.82-0.14,1.71,0.55,2.54,1.81c0.83-0.33,1.6-0.77,2.31-1.31c-0.65-1.36-0.78-2.47-0.24-3.11c0.54-0.63,1.67-0.68,3.11-0.25
		c0.41-0.77,0.72-1.6,0.93-2.49C60.65,47.27,59.84,46.5,59.85,45.67 M51.04,51.31c-3.16-0.59-5.24-3.62-4.65-6.78
		c0.59-3.16,3.62-5.24,6.78-4.65c3.16,0.59,5.24,3.62,4.65,6.78C57.23,49.81,54.2,51.9,51.04,51.31"/>
	<path class="st1" d="M43.92,31.44c1.07,0.43,2.29-0.09,2.72-1.17c0.43-1.07-0.09-2.29-1.16-2.72c-1.07-0.43-2.29,0.09-2.72,1.16
		C42.33,29.79,42.85,31.01,43.92,31.44"/>
	<path class="st1" d="M54.19,26.51c1.07,0.43,2.29-0.09,2.72-1.17c0.43-1.07-0.09-2.29-1.16-2.72c-1.07-0.43-2.29,0.09-2.72,1.16
		C52.6,24.86,53.12,26.08,54.19,26.51"/>
	<path class="st1" d="M69.77,33.6c1.07,0.43,2.29-0.09,2.72-1.17c0.43-1.07-0.09-2.29-1.16-2.72c-1.07-0.43-2.29,0.09-2.72,1.16
		C68.18,31.95,68.7,33.17,69.77,33.6"/>
	<path class="st1" d="M60.56,34.17c1.07,0.43,2.29-0.09,2.72-1.17c0.43-1.07-0.09-2.29-1.16-2.72c-1.07-0.43-2.29,0.09-2.72,1.16
		C58.96,32.52,59.48,33.74,60.56,34.17"/>
	<path class="st1" d="M69.39,43.35c1.07,0.43,2.29-0.09,2.72-1.17c0.43-1.07-0.09-2.29-1.16-2.72c-1.07-0.43-2.29,0.09-2.72,1.16
		C67.79,41.7,68.32,42.92,69.39,43.35"/>
	<path class="st1" d="M43.27,20.66c1.07,0.43,2.29-0.09,2.72-1.17c0.43-1.07-0.09-2.29-1.16-2.72c-1.07-0.43-2.29,0.09-2.72,1.16
		C41.68,19.01,42.2,20.23,43.27,20.66"/>
	<path class="st1" d="M69.34,25.67c1.07,0.43,2.29-0.09,2.72-1.17c0.43-1.07-0.09-2.29-1.16-2.72c-1.07-0.43-2.29,0.09-2.72,1.16
		C67.75,24.02,68.27,25.24,69.34,25.67"/>
	<path class="st1" d="M55.72,20.1c1.07,0.43,2.29-0.09,2.72-1.17c0.43-1.07-0.09-2.29-1.16-2.72c-1.07-0.43-2.29,0.09-2.72,1.16
		C54.12,18.45,54.65,19.68,55.72,20.1"/>
	<path class="st1" d="M34.86,26.46c1.07,0.43,2.29-0.09,2.72-1.17c0.43-1.07-0.09-2.29-1.16-2.72c-1.07-0.43-2.29,0.09-2.72,1.16
		C33.26,24.81,33.78,26.03,34.86,26.46"/>
	<path class="st1" d="M60.98,75.86c1.07,0.43,2.29-0.09,2.72-1.17c0.43-1.07-0.09-2.29-1.16-2.72c-1.07-0.43-2.29,0.09-2.72,1.16
		C59.38,74.21,59.91,75.43,60.98,75.86"/>
	<path class="st1" d="M78.08,59.08c1.07,0.43,2.29-0.09,2.72-1.17c0.43-1.07-0.09-2.29-1.16-2.72c-1.07-0.43-2.29,0.09-2.72,1.16
		C76.49,57.43,77.01,58.65,78.08,59.08"/>
	<path class="st1" d="M81.5,48.36c1.07,0.43,2.29-0.09,2.72-1.17c0.43-1.07-0.09-2.29-1.16-2.72c-1.07-0.43-2.29,0.09-2.72,1.16
		C79.91,46.71,80.43,47.93,81.5,48.36"/>
	<path class="st1" d="M69.04,53.22c1.07,0.43,2.29-0.09,2.72-1.17c0.43-1.07-0.09-2.29-1.16-2.72c-1.07-0.43-2.29,0.09-2.72,1.16
		C67.45,51.57,67.97,52.79,69.04,53.22"/>
	<path class="st1" d="M60.6,58.62c1.07,0.43,2.29-0.09,2.72-1.17c0.43-1.07-0.09-2.29-1.16-2.72c-1.07-0.43-2.29,0.09-2.72,1.16
		C59,56.97,59.52,58.19,60.6,58.62"/>
	<path class="st1" d="M31.37,35.5c1.07,0.43,2.29-0.09,2.72-1.17c0.43-1.07-0.09-2.29-1.16-2.72c-1.07-0.43-2.29,0.09-2.72,1.16
		C29.78,33.84,30.3,35.07,31.37,35.5"/>
	<path class="st1" d="M79.09,36.12c1.07,0.43,2.29-0.09,2.72-1.17c0.43-1.07-0.09-2.29-1.16-2.72c-1.07-0.43-2.29,0.09-2.72,1.16
		C77.5,34.47,78.02,35.69,79.09,36.12"/>
	<path class="st1" d="M66.17,64.69c1.07,0.43,2.29-0.09,2.72-1.17c0.43-1.07-0.09-2.29-1.16-2.72c-1.07-0.43-2.29,0.09-2.72,1.16
		C64.58,63.04,65.1,64.26,66.17,64.69"/>
	<path class="st1" d="M90.51,49.24c-0.35-0.06-0.7-0.1-1.06-0.14l-0.83-0.09l-0.2,0.81c-0.43,1.76-1.01,3.5-1.73,5.17
		c-1.93,4.51-4.85,8.54-8.43,11.65c-3.34,2.9-5.35,4.91-8.28,8.25c-5.25,5.99-6.68,14.8-3.67,22.19c-10,3.12-21.03,3.78-31.29,1.87
		l0-2.15c-0.13-2.69-0.61-5.31-1.37-7.57c-1.31-3.86-3.44-6.74-6.33-8.56c-3.11-1.96-4.07-2.17-6.39-2.67
		c-0.62-0.13-1.33-0.29-2.23-0.51c-0.43-0.1-0.85-0.2-1.28-0.3c-1.67-0.38-3.39-0.78-4.88-1.5c-1.91-0.92-3.22-2.31-3.59-3.84
		c-0.38-1.56,0.37-3.42,1.09-5.22l0.35-0.88c0.49-1.27,0.33-2.76-0.41-3.9c-0.16-0.25-0.34-0.46-0.53-0.69
		c-0.14-0.16-0.27-0.32-0.33-0.44C9,60.54,9,60.26,9.1,60.07c0.09-0.17,0.46-0.44,0.7-0.47c0.74-0.1,1.28-0.74,1.27-1.48
		c-0.01-0.74-0.58-1.36-1.32-1.44c-0.15-0.01-0.32-0.13-0.39-0.26c-0.02-0.04-0.04-0.08-0.05-0.11c0.91-0.77,2.13-1.89,2.54-3.48
		c0.19-0.76,0.17-1.43-0.07-2.23c-0.1-0.33-0.32-0.61-0.61-0.8c-0.91-0.61-1.85-1.24-2.45-2.04c-0.4-0.53-0.77-1.4-0.5-2.1
		c0.23-0.59,0.91-1.11,1.71-1.67c0.68-0.48,1.4-0.94,2.12-1.4c2.07-1.32,4.2-2.68,5.85-4.74c1.34-1.69,2.05-3.64,2.74-5.57
		c0.25-0.7,0.51-1.42,0.8-2.11c1.45-3.42,3.87-6.45,6.21-9.37c2.51-3.14,7.36-6.19,8.78-7.04c1.73-1.04,3.37-1.85,5.02-2.49
		l0.64-0.24c1.49-0.55,2.19-2.65-0.14-2.94l-0.57,0.07l-1.04,0.39c-1.84,0.7-3.61,1.58-5.44,2.68c-1.53,0.92-6.75,4.21-9.56,7.73
		c-2.46,3.08-5.01,6.26-6.61,10.06c-0.32,0.75-0.59,1.52-0.87,2.29c-0.63,1.75-1.22,3.4-2.27,4.7c-1.34,1.68-3.18,2.85-5.13,4.09
		c-0.74,0.47-1.49,0.95-2.23,1.46c-0.93,0.65-2.21,1.54-2.78,3.03c-0.58,1.52-0.24,3.41,0.9,4.92c0.74,0.98,1.71,1.72,2.67,2.38
		c0,0.06-0.02,0.12-0.04,0.2c-0.19,0.74-0.93,1.41-1.8,2.14c-0.96,0.8-1.13,2.23-0.43,3.56c0.05,0.09,0.1,0.18,0.16,0.27
		c-0.19,0.21-0.34,0.44-0.46,0.67c-0.53,1.06-0.51,2.36,0.05,3.4c0.21,0.39,0.47,0.69,0.68,0.94c0.11,0.13,0.22,0.26,0.31,0.39
		c0.23,0.35,0.28,0.84,0.13,1.23c-0.11,0.28-0.22,0.56-0.34,0.85c-0.85,2.13-1.82,4.54-1.21,7.02c0.58,2.38,2.47,4.49,5.18,5.79
		c1.78,0.85,3.66,1.29,5.48,1.71c0.42,0.1,0.83,0.19,1.25,0.29c0.93,0.23,1.69,0.39,2.33,0.53c2.11,0.46,2.75,0.6,5.43,2.28
		c2.18,1.37,5.9,4.99,6.34,13.72l0,2.18l-0.15,2.27l1.25,0.26c4.5,0.93,9.11,1.4,13.71,1.4c7.47,0,14.85-1.22,21.93-3.64l1.6-0.55
		l-1-1.96c-3.05-6.44-1.91-14.67,2.77-20.02c2.84-3.24,4.78-5.17,8-7.97c3.91-3.4,7.1-7.8,9.2-12.71c0.79-1.85,1.44-3.78,1.91-5.75
		l0.24-1L90.51,49.24z"/>
</g>
</svg>
