<svg xmlns="http://www.w3.org/2000/svg" viewBox="0 0 48 48">
  
<g transform="matrix(2,0,0,2,0,0)"><path d="M21.25,6.37C21.25,2.8,19,0,16,0a5.21,5.21,0,0,0-3.66,1.49.5.5,0,0,1-.7,0A5.21,5.21,0,0,0,8,0C5.05,0,2.75,2.8,2.75,6.37a10.61,10.61,0,0,0,2.31,7.15.51.51,0,0,1,.09.5,15.87,15.87,0,0,0-.94,5.47,16.13,16.13,0,0,0,.34,3.35A1.46,1.46,0,0,0,6,24a1.49,1.49,0,0,0,1.49-1.33c.37-3.4,2.32-6,4.54-6s4.17,2.56,4.54,6A1.49,1.49,0,0,0,18,24a1.46,1.46,0,0,0,1.42-1.16,16.13,16.13,0,0,0,.34-3.35A15.87,15.87,0,0,0,18.85,14a.51.51,0,0,1,.09-.5A10.61,10.61,0,0,0,21.25,6.37ZM16.5,10.29a.64.64,0,0,1-.64.64H14.43a.5.5,0,0,0-.5.5v1.43a.64.64,0,0,1-.64.64H10.71a.64.64,0,0,1-.64-.64V11.43a.5.5,0,0,0-.5-.5H8.14a.64.64,0,0,1-.64-.64V7.71a.64.64,0,0,1,.64-.64H9.57a.5.5,0,0,0,.5-.5V5.14a.64.64,0,0,1,.64-.64h2.58a.64.64,0,0,1,.64.64V6.57a.5.5,0,0,0,.5.5h1.43a.64.64,0,0,1,.64.64Z" style="fill: #2ABB99"></path></g></svg>